<svg xmlns="http://www.w3.org/2000/svg" xmlns:xlink="http://www.w3.org/1999/xlink" height="500.0" preserveAspectRatio="xMidYMid meet" version="1.0" viewBox="0.3 0.2 500.0 500.0" width="500.0" zoomAndPan="magnify"><g><g id="change1_1"><circle cx="250.3" cy="250.2" fill="#e2bc2c" r="250"/></g><g id="change2_1"><path d="M258,125.6c-4.3-3.2-10.1-3.2-14.4,0L101.7,238.3v11.9h38.3c2.7,0,5,2.2,5,5v108.2c0,4.4,3.6,8,8,8h69.1v-69.2 c0-15.8,12.8-28.6,28.6-28.6s28.6,12.8,28.6,28.6v69.2h69.1c4.4,0,8-3.6,8-8V255.1c0-2.7,2.2-5,5-5h38.3v-12.8L258,125.6z" fill="#332e33"/></g></g></svg>