<svg xmlns="http://www.w3.org/2000/svg" xmlns:xlink="http://www.w3.org/1999/xlink" height="112.5" preserveAspectRatio="xMidYMid meet" version="1.0" viewBox="-0.1 -0.0 126.2 112.5" width="126.2" zoomAndPan="magnify"><g><g><g><g><g id="change1_1"><path d="M98.75,63.982h-0.01L87,60.022l-0.56-4.36h0.01c0,0,11.65-4.62,14.61-12.66 c2.96-8.04,1.94-42,1.94-42H70.48c0,0-0.48,20.28-1.81,25.32c-0.698,2.625-2.201,5.048-3.485,6.775l-1.438,1.784 c-0.398,0.454-0.676,0.739-0.737,0.8C63,35.692,63,35.692,63,35.692c-4.96,3.5-8.76,7.89-8.76,7.89 c-1.32-0.98-3.07-1.59-5.3-1.06c-3.47,0.82-4.39,3.15-4.53,4.98c0,0-3.07-1.17-5.85,0.88c-3.05,2.25-2.27,5.57-2.27,5.57 s-2.66-0.9-4.83,0.21c-2.66,1.36-2.17,4.25-2.17,4.25s-5.83-3.27-10.2-4.58C14.72,52.522,1,53.062,1,53.062v27.15 c0,0,12.71-1.74,15.75-1.22c3.04,0.53,5.27,2.85,5.27,2.85c-0.63,0.77-0.98,1.74-0.98,2.76c0,0.32,0.04,0.64,0.11,0.97 l3.78,16.69c0.67,2.95,3.59,4.81,6.54,4.17l7.52-1.63H39l3.14,1.92c1.22,0.74,2.62,1.13,4.04,1.13 c1.9,0.01,4.69,0.11,6.82,0.59c3.56,0.79,5.84,2.86,8.38,3.06c1.84,0.14,4.52-1.01,5.85-1.65c0.55-0.26,1.17-0.35,1.77-0.24 l9.36,1.62c1.04,0.17,2.11,0.13,3.13-0.15l9.1-2.44c1.87-0.5,3.49-1.7,4.48-3.36c1.8-3,5.11-7.84,8.72-9.89 c5.42-3.09,21.21-4.61,21.21-4.61v-40.31C117.12,55.782,108.32,60.242,98.75,63.982z" fill="#fec4b9"/></g><g id="change2_1"><path d="M32.26,65.212c-0.41,0.08-0.8,0.2-1.17,0.37v-0.01l-1.8-7.16c0,0-0.49-2.89,2.17-4.25 c2.17-1.11,4.83-0.21,4.83-0.21l4.45,12.87v0.01l-1.09,9.16l-0.9-6.13c-0.4-2.77-2.77-4.75-5.46-4.75 C32.95,65.112,32.61,65.152,32.26,65.212z" fill="#f2ada5"/></g><g id="change3_6"><path d="M44.6,49.932l2.81,9.66c-0.19-0.05-0.38-0.08-0.57-0.11c-0.23-0.03-0.46-0.05-0.69-0.05 c-2.55,0-4.77,1.91-5.07,4.52l-0.34,2.87l-4.45-12.87c0,0-0.78-3.32,2.27-5.57c2.78-2.05,5.85-0.88,5.85-0.88 C44.29,48.852,44.6,49.932,44.6,49.932z" fill="#f7b6ad"/></g><g id="change3_3"><path d="M70.55,69.492c0.12,3.01-2.04,5.59-4.94,5.91c-0.2,0.02-0.41,0.03-0.61,0.03 c-1.8,0-3.43-0.91-4.45-2.34l2.03-11.17c0.52-2.9-1.42-5.68-4.33-6.18c-0.01,0-0.02,0-0.03,0v-0.01l-0.67-7.6 c-0.3-3.41,2.1-6.43,5.4-6.8c0.22-0.02,0.43-0.04,0.65-0.04c3.21,0,5.93,2.62,6.06,6.01l0.08,1.99l0.44,10.91l0.33,8.35 L70.55,69.492z" fill="#f7b6ad"/></g><g id="change3_5"><path d="M86.44,55.662l0.56,4.36l-2.95-0.99c-1.6-0.54-3.34-0.58-4.97-0.13L76,59.742l-0.69-6.42 c-0.06-0.58-0.03-1.14,0.08-1.68c0.46-2.22,2.31-4,4.7-4.25c0.19-0.02,0.38-0.03,0.56-0.03c2.68,0,4.98,1.99,5.33,4.7 L86.44,55.662z" fill="#f7b6ad"/></g><g id="change4_1"><path d="M63.01,35.682c0.26-0.26,4.36-4.47,5.66-9.36c1.33-5.04,1.81-25.32,1.81-25.32H103 c0,0,1.02,33.96-1.94,42s-14.61,12.66-14.61,12.66h-0.01l-0.46-3.6c-0.35-2.71-2.65-4.7-5.33-4.7c-0.18,0-0.37,0.01-0.56,0.03 c-2.39,0.25-4.24,2.03-4.7,4.25c-2.27,0.09-4.16-0.7-5.65-2.35l-0.08-1.99c-0.13-3.39-2.85-6.01-6.06-6.01 c-0.22,0-0.43,0.02-0.65,0.04c-3.3,0.37-5.7,3.39-5.4,6.8c0,0-1.01-2.84-3.31-4.55c0,0,3.8-4.39,8.76-7.89 C63,35.692,63,35.692,63.01,35.682z" fill="#ffd7d2"/></g><g id="change3_4"><path d="M71.83,67.992l-1.31,0.56h-0.01l-0.33-8.35l2.45-0.56c1.11-0.26,2.27-0.22,3.37,0.1 c0.25,0.07,0.5,0.16,0.74,0.26l31.94,13.56c1.65,0.7,2.7,2.3,2.76,4.04c0.01,0.32-0.01,0.64-0.07,0.96 c-0.4,2.16-2.3,3.71-4.46,3.71c-0.14,0-0.27-0.01-0.41-0.02l-4.88-0.44c0.16-1.77-0.83-3.47-2.49-4.2l-21.78-9.58 C75.59,67.262,73.6,67.242,71.83,67.992z" fill="#f7b6ad"/></g><g id="change3_1"><path d="M58.91,84.552l10.2-1.91c-2.15,0.64-3.87,2.41-4.37,4.73c-0.09,0.42-0.14,0.84-0.14,1.26 l-2-0.45C60.72,87.752,59.33,86.312,58.91,84.552z" fill="#f7b6ad"/></g><g id="change3_2"><path d="M38.99,104.802l-7.52,1.63c-2.95,0.64-5.87-1.22-6.54-4.17l-3.78-16.69 c-0.07-0.33-0.11-0.65-0.11-0.97c0-1.02,0.35-1.99,0.98-2.76c0.54-0.67,1.29-1.19,2.18-1.45c2.54-0.74,5.15,0.92,5.56,3.53 l1.9,12.13c0.48,3,2.24,5.65,4.84,7.23L38.99,104.802z" fill="#f7b6ad"/></g><g id="change4_2"><path d="M31.09,65.582c0.37-0.17,0.76-0.29,1.17-0.37c0.35-0.06,0.69-0.1,1.03-0.1 c2.69,0,5.06,1.98,5.46,4.75l0.9,6.13l1.09-9.16v-0.01l0.34-2.87c0.3-2.61,2.52-4.52,5.07-4.52c0.23,0,0.46,0.02,0.69,0.05 c0.19,0.03,0.38,0.06,0.57,0.11c2.52,0.63,4.2,3.09,3.81,5.72l0.89-5.23c0.44-2.59,2.69-4.42,5.23-4.42 c0.29,0,0.58,0.03,0.88,0.08c0.01,0,0.02,0,0.03,0c2.91,0.5,4.85,3.28,4.33,6.18l-2.03,11.17l-1.71,9.41 c-0.13,0.7-0.1,1.4,0.07,2.05c0.42,1.76,1.81,3.2,3.69,3.63l2,0.45c0-0.42,0.05-0.84,0.14-1.26c0.5-2.32,2.22-4.09,4.37-4.73 c0.82-0.25,1.69-0.33,2.58-0.22L92,84.912l4.84,0.7c0.2,0.03,0.4,0.04,0.6,0.04c1.93,0,3.66-1.35,4.1-3.29 c0.04-0.18,0.07-0.36,0.08-0.55l4.88,0.44c0.14,0.01,0.27,0.02,0.41,0.02c2.16,0,4.06-1.55,4.46-3.71 c0.06-0.32,0.08-0.64,0.07-0.96l0.3,0.04c2.31,0.35,4.49-1.16,4.99-3.43c0.07-0.32,0.1-0.63,0.1-0.95 c0-1.87-1.19-3.59-3.02-4.21l-15.06-5.07c9.57-3.74,18.37-8.2,26.25-13.51v40.31c0,0-15.79,1.52-21.21,4.61 c-3.61,2.05-6.92,6.89-8.72,9.89c-0.99,1.66-2.61,2.86-4.48,3.36l-9.1,2.44c-1.02,0.28-2.09,0.32-3.13,0.15l-9.36-1.62 c-0.6-0.11-1.22-0.02-1.77,0.24c-1.33,0.64-4.01,1.79-5.85,1.65c-2.54-0.2-4.82-2.27-8.38-3.06c-2.13-0.48-4.92-0.58-6.82-0.59 c-1.42,0-2.82-0.39-4.04-1.13l-3.14-1.92h-0.01l-2.49-1.52c-2.6-1.58-4.36-4.23-4.84-7.23l-1.9-12.13l-1.94-12.41 C27.42,68.962,28.82,66.552,31.09,65.582z" fill="#ffd7d2"/></g></g></g></g><g id="change5_1"><path d="M124.904,89.784c-0.653,0.063-16.069,1.581-21.609,4.734c-3.669,2.088-6.962,6.728-9.079,10.252 c-0.861,1.434-2.241,2.467-3.887,2.908l-9.099,2.44c-0.874,0.235-1.806,0.276-2.696,0.123l-9.365-1.618 c-0.81-0.141-1.629-0.027-2.37,0.329c-2.234,1.077-4.185,1.645-5.343,1.55c-1.117-0.088-2.247-0.633-3.556-1.263 c-1.33-0.641-2.836-1.365-4.68-1.776c-2.202-0.489-5.04-0.603-7.033-0.61c-1.253-0.005-2.472-0.347-3.523-0.988l-3.117-1.9 c-0.003-0.002-0.006-0.003-0.008-0.005l-2.517-1.534c-2.35-1.433-3.942-3.813-4.368-6.532l-3.847-24.54 c-0.381-2.435,1.217-4.699,3.639-5.154c1.227-0.227,2.457,0.042,3.471,0.767s1.67,1.802,1.849,3.035l0.874,6.014l-1.651,13.901 c-0.403,3.4,1.212,6.771,4.115,8.586l9.589,5.996c0.165,0.104,0.348,0.152,0.529,0.152c0.333,0,0.659-0.166,0.849-0.47 c0.293-0.469,0.151-1.085-0.317-1.378l-9.589-5.996c-2.25-1.407-3.502-4.02-3.189-6.654l3.097-26.086 c0.131-1.103,0.686-2.085,1.563-2.767c0.877-0.682,1.966-0.973,3.069-0.829c1.118,0.149,2.102,0.731,2.771,1.639 c0.669,0.908,0.934,2.021,0.745,3.133c0,0,0,0,0,0.001l-3.667,21.575c-0.671,3.948,1.056,7.924,4.4,10.129l9.432,6.219 c0.169,0.111,0.36,0.165,0.549,0.165c0.325,0,0.644-0.158,0.836-0.449c0.304-0.461,0.177-1.082-0.285-1.386l-9.432-6.219 c-2.682-1.769-4.067-4.957-3.529-8.123l3.667-21.575v0c0,0,0,0,0,0l0.905-5.325c0.193-1.137,0.818-2.131,1.76-2.797 c0.942-0.667,2.086-0.925,3.224-0.73c1.143,0.197,2.138,0.829,2.803,1.778c0.665,0.95,0.917,2.102,0.71,3.242l-3.734,20.581 c-0.567,3.127,1.417,6.126,4.516,6.827l1.259,0.285c0.278,2.862,2.221,5.361,5.118,6.254c6.715,2.073,15.293,4.487,18.806,4.487 c0.143,0,0.277-0.004,0.402-0.012c5.221-0.339,9.263-5.803,9.433-6.035c0.325-0.445,0.227-1.07-0.218-1.396 s-1.072-0.229-1.397,0.217c-0.036,0.049-3.667,4.94-7.948,5.218c-2.23,0.13-8.978-1.455-18.489-4.391 c-2.651-0.817-4.209-3.482-3.625-6.2c0.425-1.978,1.883-3.453,3.706-3.982l1.116-0.209c0.337-0.023,0.681-0.016,1.029,0.027 l20.291,2.489l4.84,0.693c2.564,0.366,5-1.253,5.713-3.713l4.002,0.36c0.171,0.016,0.341,0.022,0.51,0.022 c2.65,0,4.936-1.87,5.428-4.527c0.003-0.016,0.002-0.033,0.005-0.049c0.01,0,0.021,0.002,0.032,0.002 c2.511,0,4.763-1.756,5.315-4.272c0.597-2.716-0.941-5.434-3.577-6.321l-12.505-4.208c8.888-3.646,16.937-7.872,23.938-12.593 c0.458-0.309,0.579-0.93,0.27-1.388c-0.309-0.458-0.931-0.579-1.388-0.27c-7.449,5.024-16.107,9.486-25.73,13.272L87.917,59.28 l-0.384-2.994c2.66-1.176,11.79-5.664,14.466-12.939c2.991-8.13,2.042-40.981,2-42.375c-0.016-0.553-0.508-1.008-1.029-0.97 c-0.552,0.017-0.986,0.478-0.97,1.029c0.01,0.338,0.98,33.855-1.877,41.625c-2.226,6.053-9.888,10.152-12.856,11.547l-0.291-2.273 c-0.437-3.409-3.565-5.89-6.99-5.532c-1.698,0.178-3.225,1.008-4.297,2.337c-0.466,0.578-0.815,1.223-1.054,1.904 c-1.538-0.085-2.823-0.681-3.91-1.778l-0.064-1.6c-0.082-2.038-1.002-3.957-2.524-5.267c-1.485-1.278-3.36-1.862-5.294-1.654 c-2.721,0.299-4.929,2.185-5.851,4.663c-0.381-0.526-0.824-1.038-1.325-1.51c2.268-2.427,9.853-10.031,16.642-10.972 c7.228-1.008,14.086,3.346,14.155,3.391c0.464,0.298,1.083,0.163,1.382-0.299c0.299-0.464,0.166-1.082-0.298-1.382 c-0.304-0.196-7.542-4.796-15.513-3.691c-1.646,0.228-3.312,0.789-4.936,1.553c1.014-1.58,1.998-3.48,2.536-5.514 c1.351-5.103,1.826-24.722,1.846-25.555c0.013-0.552-0.424-1.01-0.976-1.023c-0.574-0.04-1.01,0.423-1.023,0.976 c-0.005,0.202-0.489,20.213-1.78,25.09c-1.156,4.369-4.769,8.248-5.328,8.83c-3.9,2.758-7.059,6.019-8.316,7.386 c-1.455-0.837-3.238-1.239-5.349-0.739c-2.057,0.489-3.551,1.506-4.44,3.025c-0.327,0.559-0.538,1.139-0.674,1.705 c-1.311-0.215-3.525-0.243-5.625,1.304c-2.207,1.626-2.707,3.726-2.76,5.117c-1.121-0.156-2.735-0.177-4.205,0.574 c-1.663,0.851-2.385,2.255-2.635,3.508c-2.018-1.058-5.834-2.953-8.993-3.901c-4.477-1.343-17.848-0.841-18.414-0.818 c-0.552,0.021-0.981,0.486-0.96,1.038c0.021,0.551,0.475,1.016,1.038,0.96c0.134-0.004,13.601-0.512,17.762,0.736 c3.598,1.079,8.292,3.56,9.621,4.281l1.503,5.975c-2.228,1.325-3.521,3.892-3.094,6.613l1.299,8.284 c-1.271-0.737-2.788-0.933-4.206-0.52c-0.734,0.213-1.381,0.579-1.935,1.043c-0.966-0.799-2.79-2.068-5.07-2.461 c-3.106-0.537-14.737,1.031-16.054,1.211c-0.547,0.075-0.93,0.579-0.855,1.127c0.074,0.547,0.578,0.921,1.126,0.855 c3.494-0.478,13.078-1.624,15.444-1.223c1.833,0.315,3.352,1.386,4.139,2.035c-0.614,1.117-0.847,2.447-0.545,3.777l3.783,16.692 c0.682,3.01,3.383,5.071,6.357,5.071c0.452,0,0.91-0.048,1.368-0.146l7.142-1.545l2.8,1.707c1.363,0.832,2.938,1.274,4.557,1.281 c1.895,0.008,4.579,0.112,6.606,0.563c1.619,0.359,2.955,1.003,4.247,1.625c1.428,0.688,2.776,1.337,4.266,1.455 c0.134,0.011,0.271,0.016,0.411,0.016c1.897,0,4.258-0.938,5.958-1.757c0.362-0.175,0.763-0.23,1.16-0.161l9.366,1.618 c1.176,0.204,2.405,0.147,3.555-0.162l9.099-2.44c2.149-0.576,3.954-1.93,5.083-3.811c1.632-2.717,4.888-7.57,8.354-9.543 c5.17-2.943,20.656-4.467,20.812-4.482c0.55-0.053,0.952-0.542,0.899-1.091C125.942,90.134,125.462,89.738,124.904,89.784z M63.762,87.161c-0.018,0.082-0.026,0.164-0.041,0.246l-0.904-0.205c-1.12-0.253-2.006-0.968-2.531-1.893l4.682-0.876 C64.401,85.227,63.98,86.145,63.762,87.161z M96.982,84.619l-4.86-0.695l-20.311-2.491c-1.021-0.127-2.016-0.033-2.944,0.235 l-9.096,1.702c0.001-0.227,0.015-0.455,0.056-0.686l1.367-7.534c1.109,0.823,2.448,1.287,3.834,1.287 c0.23,0,0.461-0.013,0.692-0.038c3.413-0.376,5.975-3.427,5.833-6.946l-0.01-0.249l0.679-0.288 c1.505-0.638,3.227-0.625,4.724,0.032l21.778,9.576c1.393,0.613,2.165,2.136,1.836,3.621C100.2,83.769,98.627,84.853,96.982,84.619 z M110.385,78.378c-0.334,1.805-1.954,3.042-3.792,2.876l-3.998-0.359c-0.199-1.806-1.333-3.439-3.067-4.201L77.75,67.117 c-1.993-0.877-4.286-0.894-6.294-0.049l-0.244-6.08l1.642-0.374c1.175-0.268,2.383-0.16,3.491,0.31l31.946,13.558 C109.827,75.134,110.688,76.736,110.385,78.378z M115.75,73.993c-0.353,1.608-1.805,2.716-3.413,2.688 c-0.337-1.766-1.516-3.298-3.265-4.041L79.111,59.926l0.233-0.064c1.448-0.4,2.966-0.358,4.391,0.121l29.754,10.014 C115.155,70.558,116.127,72.275,115.75,73.993z M80.194,48.388c2.357-0.244,4.498,1.458,4.798,3.796l0.818,6.387l-1.439-0.484 c-1.803-0.606-3.726-0.659-5.559-0.153l-1.941,0.535L76.3,53.214c-0.127-1.165,0.208-2.31,0.945-3.222 C77.981,49.08,79.028,48.51,80.194,48.388z M74.281,52.614c-0.005,0.271,0.001,0.543,0.031,0.817l0.553,5.079 c-0.814-0.079-1.64-0.032-2.455,0.154l-1.279,0.291l-0.3-7.464C71.864,52.129,73.015,52.506,74.281,52.614z M63.061,42.33 c1.371-0.149,2.71,0.269,3.771,1.182c1.104,0.949,1.771,2.346,1.831,3.831l0.892,22.189c0.1,2.475-1.681,4.617-4.053,4.878 c-1.466,0.164-2.918-0.446-3.885-1.588l1.945-10.72c0.303-1.67-0.066-3.355-1.039-4.746c-0.827-1.182-2.005-2.022-3.367-2.426 l-0.611-6.886C58.291,45.195,60.317,42.631,63.061,42.33z M49.169,43.492c4.816-1.149,7.059,4.011,7.394,4.866l0.56,6.309 c-1.219,0.041-2.403,0.434-3.423,1.155c-1.378,0.976-2.293,2.43-2.576,4.095l-0.148,0.872c-0.724-0.928-1.672-1.614-2.758-1.999 l-2.654-9.134c-0.006-0.023-0.62-2.299,0.436-4.087C46.604,44.547,47.67,43.848,49.169,43.492z M39.154,49.191 c1.606-1.183,3.314-1.096,4.229-0.926c0.022,1.089,0.239,1.876,0.258,1.941l2.392,8.236c-1.309,0.024-2.571,0.459-3.625,1.278 c-0.978,0.759-1.687,1.77-2.062,2.92l-3.089-8.951C37.195,53.356,36.823,50.908,39.154,49.191z M30.272,58.243 c-0.004-0.021-0.34-2.175,1.643-3.19c1.29-0.662,2.853-0.438,3.607-0.268l4.195,12.157L39.507,68.7 c-0.419-1.35-1.254-2.522-2.429-3.361c-1.461-1.045-3.236-1.438-5.002-1.104c-0.095,0.018-0.185,0.045-0.278,0.066L30.272,58.243z M31.258,105.455c-2.404,0.519-4.808-1.01-5.352-3.411l-3.783-16.692c-0.395-1.745,0.641-3.504,2.359-4.004 c0.935-0.27,1.942-0.127,2.764,0.395c0.822,0.522,1.379,1.374,1.53,2.336c0,0,0,0,0,0.001l1.901,12.125 c0.517,3.301,2.45,6.19,5.303,7.929l0.364,0.222L31.258,105.455z" fill="#3a322b"/></g></g></svg>