<svg xmlns="http://www.w3.org/2000/svg" xmlns:xlink="http://www.w3.org/1999/xlink" preserveAspectRatio="xMidYMid meet" version="1.0" viewBox="0.0 -0.0 1322.9 1322.9" zoomAndPan="magnify" style="fill: rgb(0, 0, 0);" original_string_length="4725"><defs><clipPath clipPathUnits="userSpaceOnUse" id="__id222_sgjrh3pmj6"><path d="m 1432.48,304.21995 v 264.58328 h -264.5834 l 10e-5,-264.58325 z" paint-order="markers stroke fill" stroke-width="50" style="fill: rgb(188, 141, 118);"/></clipPath></defs><g><g paint-order="markers stroke fill"><g id="__id223_sgjrh3pmj6"><path d="M 5641.711,66.416089 V 1389.3321 l -1322.9167,5e-4 5e-4,-1322.916511 z" transform="translate(-4318.794 -66.416)" style="fill: rgb(188, 141, 118);"/></g><g clip-path="url(#__id222_sgjrh3pmj6)" stroke-width=".2" transform="matrix(5 0 0 5 -5839.481 -1521.1)"><g id="__id224_sgjrh3pmj6"><path d="m 1310.4243,377.16688 a 86.99189,86.99189 0 0 1 -86.992,-86.9919 86.99189,86.99189 0 0 1 86.9919,-86.99186 86.99189,86.99189 0 0 1 86.9919,86.99191 86.99189,86.99189 0 0 1 -86.9918,86.99185 z" style="fill: rgb(230, 164, 80);"/></g><g id="__id225_sgjrh3pmj6"><path d="m 1479.3962,447.48444 c -23.6557,5.84254 -83.5131,24.66893 -95.033,-21.97399 -11.5199,-46.6426 16.9529,-93.79274 63.5955,-105.31268 46.6428,-11.51981 57.8486,50.21965 63.6911,73.8753 5.8426,23.6557 -8.5979,47.56888 -32.2536,53.41137 z" style="fill: rgb(245, 194, 171);"/></g><g id="__id226_sgjrh3pmj6"><path d="m 1214.8129,447.48439 c -23.6557,5.84253 -83.5132,24.66896 -95.033,-21.97384 -11.5199,-46.64273 16.9528,-93.79295 63.5956,-105.31272 46.6427,-11.51979 57.8484,50.21957 63.6909,73.87529 5.8427,23.65572 -8.5978,47.56884 -32.2535,53.41127 z" style="fill: rgb(245, 194, 171);"/></g><g id="__id227_sgjrh3pmj6"><path d="m 1091.2471,544.08847 c -42.6832,-22.05449 -59.4059,-74.53471 -37.3513,-117.21786 22.0546,-42.68309 40.0226,7.38659 82.7058,29.44123 42.6832,22.05472 93.9181,7.74247 71.8633,50.42554 -22.0547,42.68308 -74.5347,59.40576 -117.2178,37.35109 z" style="fill: rgb(209, 119, 76);"/></g><g id="__id228_sgjrh3pmj6"><path d="m 1310.4241,641.75028 a 86.99189,86.99189 0 0 1 -86.9917,-86.99184 86.99189,86.99189 0 0 1 86.9919,-86.99194 86.99189,86.99189 0 0 1 86.9918,86.9919 86.99189,86.99189 0 0 1 -86.992,86.99188 z" style="fill: rgb(230, 164, 80);"/></g><g id="__id229_sgjrh3pmj6"><path d="m 1355.8303,544.0885 c -42.6831,-22.05448 -59.406,-74.53478 -37.3514,-117.21787 22.0547,-42.68308 40.023,7.38666 82.706,29.44122 42.6832,22.05463 93.9181,7.74238 71.8634,50.42552 -22.0546,42.68315 -74.5348,59.40568 -117.218,37.35113 z" style="fill: rgb(209, 119, 76);"/></g><g id="__id230_sgjrh3pmj6"><path d="m 1241.6226,481.51639 a 36.974108,36.974108 0 0 1 -36.974,-36.97413 36.974108,36.974108 0 0 1 36.9741,-36.974 36.974108,36.974108 0 0 1 36.9741,36.97403 36.974108,36.974108 0 0 1 -36.9742,36.9741 z" style="fill: rgb(209, 119, 76);"/></g><g id="__id231_sgjrh3pmj6"><path d="m 1391.0487,418.5539 c 21.3075,-8.19493 31.9375,-32.11124 23.7426,-53.41888 -8.1949,-21.30756 -19.2876,1.40546 -40.5951,9.6005 -21.3075,8.19489 -44.7612,-1.2318 -36.5664,20.07576 8.195,21.30758 32.1114,31.93735 53.4189,23.74262 z" style="fill: rgb(230, 164, 80);"/></g><g id="__id232_sgjrh3pmj6"><path d="m 1293.5045,422.48925 a 18.023271,18.023271 0 0 1 -18.0234,-18.02343 18.023271,18.023271 0 0 1 18.0233,-18.02315 18.023271,18.023271 0 0 1 18.0233,18.02332 18.023271,18.023271 0 0 1 -18.0232,18.02326 z" style="fill: rgb(245, 194, 171);"/></g><g id="__id233_sgjrh3pmj6"><path d="m 1232.7524,554.75837 c 11.8902,2.93664 41.9764,12.39934 47.7667,-11.04472 5.7902,-23.44424 -8.521,-47.14335 -31.9652,-52.93364 -23.4442,-5.7903 -29.0766,25.24206 -32.0131,37.13222 -2.9367,11.89012 4.3216,23.9095 16.2116,26.84614 z" style="fill: rgb(245, 194, 171);"/></g><g id="__id234_sgjrh3pmj6"><path d="m 1319.8061,353.16692 c 7.5035,1.85321 26.4899,7.82482 30.1439,-6.97006 3.6539,-14.79471 -5.3773,-29.7504 -20.1721,-33.40457 -14.7948,-3.65398 -18.3493,15.92932 -20.2024,23.43284 -1.8534,7.50341 2.7271,15.08855 10.2306,16.94179 z" style="fill: rgb(209, 119, 76);"/></g><g id="__id235_sgjrh3pmj6"><path d="m 1198.6043,314.84773 a 18.023271,18.023271 0 0 1 -18.0234,-18.02332 18.023271,18.023271 0 0 1 18.0234,-18.02313 18.023271,18.023271 0 0 1 18.0233,18.0232 18.023271,18.023271 0 0 1 -18.0233,18.02325 z" style="fill: rgb(209, 119, 76);"/></g><g id="__id236_sgjrh3pmj6"><path d="m 1198.6043,579.43125 a 18.023271,18.023271 0 0 1 -18.0234,-18.02348 18.023271,18.023271 0 0 1 18.0233,-18.02325 18.023271,18.023271 0 0 1 18.0234,18.02333 18.023271,18.023271 0 0 1 -18.0233,18.0234 z" style="fill: rgb(209, 119, 76);"/></g><g id="__id237_sgjrh3pmj6"><path d="m 1413.8871,316.60501 a 11.872329,11.872329 0 0 1 -11.8723,-11.87222 11.872329,11.872329 0 0 1 11.8724,-11.87231 11.872329,11.872329 0 0 1 11.8722,11.8723 11.872329,11.872329 0 0 1 -11.8723,11.87223 z" style="fill: rgb(245, 194, 171);"/></g><g id="__id238_sgjrh3pmj6"><path d="m 1413.8872,581.18857 a 11.872329,11.872329 0 0 1 -11.8725,-11.87252 11.872329,11.872329 0 0 1 11.8724,-11.87222 11.872329,11.872329 0 0 1 11.8725,11.87232 11.872329,11.872329 0 0 1 -11.8724,11.87242 z" style="fill: rgb(245, 194, 171);"/></g></g></g></g></svg>