<svg xmlns="http://www.w3.org/2000/svg" xmlns:xlink="http://www.w3.org/1999/xlink" preserveAspectRatio="xMidYMid meet" version="1.0" viewBox="-4.3 0.0 385.8 500.0" zoomAndPan="magnify" style="fill: rgb(0, 0, 0);" original_string_length="7027"><g id="__id251_sgjrh3pmj6"><path d="M329.95,392.13c-5.43-17.29-9.25-31.2-12.08-44.09c3.28,1.12,6.71,1.69,10.16,1.69c4.24,0,8.5-0.85,12.5-2.57 c11.65-5.05,19.18-16.46,19.18-29.06c0-4.19-0.83-8.27-2.43-12.07c-6.89-16.8-12.47-29.65-16.58-38.17 c-4.8-10.15-11.2-19.55-19.08-28.02h0.07l-13.56-13.95c-0.37-0.96-0.74-1.89-1.12-2.8c-4.74-11.22-7.08-22.38-6.95-33.17 c0.21-17.79-2.73-41.54-17.94-53.61c-9.18-7.28-21.52-9.29-36.71-6c-0.25-0.34-0.54-0.73-0.86-1.14 c-1.68-34.65-0.38-88.3,1.48-125.58L246.21,0H42.01l0.18,3.58c0.04,0.87,4.06,87.81-16.94,155.51C6.8,218.54-4.3,286.67,1.58,300.66 v4.02l0.92-0.19c-2.95,13.16,4.5,24.08,14.61,29.74c5.94,3.32,12.99,4.88,19.16,3.64c-3.9,13.68,1.38,27.62,10.92,35.38 c10.3,8.39,21.95,8.05,30.47,5.48c-3.24,9.95-3.43,23.62,9.14,33.69c8.11,6.51,19.81,7.41,29.11,3.15 c-1.03,13,6.64,27.59,19.4,34.34c2.94,1.55,8.23,3.65,15.33,3.65c7.47,0,16.94-2.32,27.77-10.04l17.04,54.08 c0.45,1.42,1.77,2.39,3.25,2.39h179.23c1.18,0,2.28-0.61,2.9-1.61c0.62-1,0.68-2.26,0.16-3.31L329.95,392.13z M201.2,493.18 l-17.05-54.14c10.73-9.19,22.59-23.72,35.04-46.23c17.35-31.38,19.32-64.36,4.58-76.71c-6.72-5.63-15.8-5.73-25.76-0.58 c3.15-9.33,3.9-17.42,3.04-24.25c0.95-0.58,1.9-1.16,2.85-1.7c7.86-4.52,15.93-7.38,23.96-8.51c3.91-0.55,7.84-0.69,12-0.85 c5.8-0.22,11.81-0.44,17.7-1.86c10.57-2.54,21.62-10.39,22.47-22.22c0.77-10.61-7.16-19.27-14.83-23.85 c-4.57-2.72-9.49-4.6-14.25-6.41c-3.38-1.29-6.58-2.51-9.66-4.01c-2.68-1.3-5.26-2.81-7.84-4.32c-3.56-2.08-7.24-4.23-11.22-5.89 c-13.59-5.69-30.05-4.75-42.94,2.4c-13.14,7.31-17.04,19.27-20.18,28.88c-1.49,4.54-2.89,8.84-5.01,12.04l-2.01,2.97 c-0.06,0.09-0.12,0.18-0.18,0.26c-0.81-4.99-2.73-8.61-4.81-11.17c-3.63-4.47-9.05-7.42-15.47-8.63c0.74-11.31-7.41-24.27-17-29.85 c-8.51-4.96-16.96-3.71-23.17,3.45c-5.2,6-5.76,14.35-1.55,22.9c2.23,4.52,5.54,8.62,9.32,11.9c-1.65,1.2-3.14,2.4-4.4,3.48 c-1.69-6.79-5.68-16.93-14.85-20.33c-2.64-0.97-5.48-1.3-8.51-1c-0.98-3.08-1.69-6.2-2.03-9.29c-1.85-16.23,6.57-27.72,25.75-35.12 c1.36-0.52,2.24-1.86,2.19-3.31c-0.01-0.27-0.81-27.53,16.21-40.8c10.73-8.37,26.47-9.61,46.76-3.69c1.32,0.39,2.75-0.06,3.61-1.14 c16.93-21.07,34.34-28.18,51.73-21.15c15.35,6.25,25.27,21.4,25.37,21.55c0.79,1.23,2.28,1.8,3.68,1.46 c14.08-3.47,25.24-2.07,33.12,4.19c13.05,10.35,15.56,31.92,15.37,48.18c-0.15,11.73,2.37,23.81,7.48,35.9 c0.44,1.04,0.87,2.13,1.3,3.25c4.56,11.87,6.09,22.82,4.52,32.56c-3.89,24.81-2.84,51.34,3.23,81.09 c2.99,15.06,7.2,30.95,13.87,52.02l48.79,98.52H201.2z M138.5,443.89c-12.38-6.55-19.22-23.5-14.03-34.52 c4.54-4.76,9.08-9.4,13.58-13.98c20.9-21.31,40.68-41.52,54.91-68.37c10.93-8.79,20.31-10.83,26.43-5.69 c10.37,8.69,10.95,37.22-6.16,68.18C175.93,456.91,146.61,448.18,138.5,443.89z M91.06,407.1c-16.15-12.95-4.35-32.18-3.63-33.33 c19.47-26.66,52-76.49,59.77-88.43c12.01-15.76,27.29-16.91,36.39-11.32c9.43,5.79,16.18,21.12,5.48,45.64 c-0.01,0.01-0.02,0.03-0.03,0.04c-13.87,28.05-34.28,48.87-55.88,70.91c-4.64,4.74-9.34,9.52-14.03,14.45c0,0,0,0.01-0.01,0.01 c0,0-0.01,0.01-0.01,0.01C112.14,412.53,99.03,413.48,91.06,407.1z M46.34,332.04c0.01-0.02,0.03-0.03,0.05-0.05 c0.09-0.13,0.18-0.26,0.27-0.39c0.46-0.59,0.9-1.22,1.31-1.9c0,0,0-0.01,0.01-0.01c16.83-24.41,45.62-67.55,48.21-71.43 c3.18-3.05,12.6-11.42,21.99-13.07c7.88-1.38,18.24-0.49,23.64,6.15c5.09,6.28,4.93,16.8-0.45,30.46 c-7.89,12.14-39.83,61.05-59.14,87.54c-2.82,1.64-17.62,9.31-30.74-1.37C42.23,360.42,37.6,345.55,46.34,332.04z M20.44,328.28 c-8.52-4.77-15.98-15.11-8.94-28.54c1.45-2.76,2.73-5.28,3.92-7.64c6.96-13.7,10.79-21.25,28.52-38.62 c14.33-14.04,25.95-19.97,33.67-17.14c8.71,3.21,11.04,16.9,11.49,20.24c-6.61,9.9-32.06,47.97-47.21,69.91 c-0.28,0.39-0.57,0.78-0.84,1.18C36.42,332.99,27.28,332.12,20.44,328.28z M182.62,220.03c6.26-3.48,13.51-5.25,20.74-5.25 c5.58,0,11.15,1.05,16.25,3.19c3.55,1.48,6.88,3.43,10.41,5.48c2.73,1.59,5.45,3.18,8.29,4.56c3.36,1.63,6.84,2.96,10.21,4.25 c4.69,1.79,9.12,3.48,13.19,5.9c5.92,3.53,12.05,9.98,11.51,17.5c-0.6,8.35-9.36,14.18-17.24,16.07 c-5.24,1.26-10.65,1.46-16.38,1.67c-4.14,0.16-8.44,0.32-12.69,0.91c-8.9,1.25-17.79,4.39-26.41,9.34c-0.34,0.2-0.68,0.41-1.02,0.61 c-2.47-7.47-7.1-12.86-12.31-16.06c-9.06-5.57-22.68-6.18-35.16,2.85c1.53-3.11,3.59-6.13,5.72-9.26l2.07-3.05 c2.63-3.98,4.17-8.7,5.8-13.69C168.65,235.71,171.81,226.04,182.62,220.03z M124.8,237.78c-2.51,0-5.12,0.21-7.79,0.68 c-4.11,0.72-8.13,2.42-11.75,4.45c-3.72-2.87-7.13-6.78-9.22-11.03c-1.73-3.51-3.95-10.18,0.59-15.42 c4.02-4.64,8.94-5.31,14.59-2.02C119.18,219.08,125.12,229.82,124.8,237.78z M49.14,6.82h189.91c-0.8,16.84-3.17,72.97-1.65,114.29 c-4.8-4.69-11.28-9.79-19.14-12.99c-13.83-5.6-35.04-6.28-58.18,21.45c-21.52-5.85-38.57-3.99-50.72,5.5 c-16.74,13.08-18.64,36.37-18.81,43.98c-25.65,10.75-29.37,28.34-27.89,41.37c0.38,3.38,1.13,6.76,2.17,10.1 c-7.57,2.72-16.14,8.76-25.66,18.1c-18.53,18.16-22.79,26.53-29.83,40.4c-0.79,1.55-1.62,3.19-2.51,4.91 c-0.99-14.8,4.53-67.08,24.93-132.82C50.68,100.13,49.65,24.07,49.14,6.82z M352.9,318.09c0,9.88-5.92,18.83-15.06,22.79 c-6.9,2.96-14.73,2.64-21.3-0.82l-0.35-0.22c-5.65-28.37-6.6-53.66-2.91-77.24c1.13-6.98,0.86-14.46-0.79-22.34 c9.44,9.11,16.67,19.1,22.05,30.51c4.06,8.42,9.59,21.14,16.44,37.85C352.26,311.64,352.9,314.82,352.9,318.09z" style="fill: rgb(118, 75, 54);"/></g><g id="__id252_sgjrh3pmj6"><path d="M276.73,173.04c-2.49-9.2-8.44-15.09-16.3-16.15h-0.01c-9.36-1.26-16.56,3.38-19.66,12.73 c-4.06,12.18-0.13,30.53,11.19,36.84c2.91,1.63,5.8,2.44,8.55,2.44c3.05,0,5.93-1,8.47-2.98 C276.56,199.99,280.04,185.24,276.73,173.04z M264.78,200.54c-2.66,2.07-5.75,2.06-9.5-0.03c-7.36-4.1-11.41-18.6-8.04-28.73 c1.83-5.5,5.27-8.27,10.25-8.27c0.65,0,1.33,0.05,2.03,0.14c6.87,0.93,9.61,7.4,10.63,11.18 C272.71,184.28,270.2,196.3,264.78,200.54z" style="fill: rgb(118, 75, 54);"/></g><g id="__id253_sgjrh3pmj6"><path d="M197.94,130.38c-6.19,0.58-10.96,4.16-13.8,10.35c-5.22,11.39-2.85,30.59,5.2,41.92 c3.94,5.55,8.94,8.55,14.21,8.55c0.43,0,0.87-0.02,1.31-0.06c10.95-1.03,16.98-12.76,15.37-29.89 C218.74,145.4,210.32,129.17,197.94,130.38z M194.91,178.69c-6.57-9.26-8.74-26-4.56-35.12c1.81-3.95,4.5-6.05,8.24-6.4 c7.54-0.77,13.69,12.25,14.86,24.7c1,10.65-1.47,21.73-9.22,22.46C200.24,184.75,196.89,181.49,194.91,178.69z" style="fill: rgb(118, 75, 54);"/></g><g id="__id254_sgjrh3pmj6"><path d="M141.42,151.93c-6.22-2.77-12.17-2.3-17.19,1.36c-4.45,3.24-6.42,8.64-5.68,15.63 c1.45,13.8,12.94,30.44,24.59,35.62c2.59,1.15,5.11,1.73,7.51,1.73c3.09,0,5.98-0.95,8.56-2.83c4.66-3.39,6.8-9.29,6.03-16.62 C163.78,173,152.87,157.03,141.42,151.93z M155.19,197.92c-2.6,1.88-5.64,2.02-9.29,0.38c-9.38-4.17-19.38-18.8-20.57-30.1 c-0.33-3.09-0.09-7.22,2.91-9.4c1.68-1.22,3.47-1.83,5.41-1.83c1.57,0,3.23,0.39,5,1.18c9.18,4.08,18.62,18.08,19.8,29.37 C158.81,190.93,158.53,195.49,155.19,197.92z" style="fill: rgb(118, 75, 54);"/></g></svg>