<svg xmlns="http://www.w3.org/2000/svg" xmlns:xlink="http://www.w3.org/1999/xlink" preserveAspectRatio="xMidYMid meet" version="1.0" viewBox="0.9 7.6 30.3 16.9" zoomAndPan="magnify" style="fill: rgb(118, 75, 54);" original_string_length="1086"><g id="__id204_sgjrh3pmj6"><path d="M16,7.55762c-5.7793,0-11.09814,2.63477-14.59229,7.22754c-0.54492,0.71533-0.54492,1.71436-0.00049,2.42871 C4.90186,21.80762,10.2207,24.44238,16,24.44238s11.09814-2.63477,14.59229-7.22754 c0.54492-0.71533,0.54492-1.71338,0.00049-2.42871C27.09814,10.19238,21.7793,7.55762,16,7.55762z M29.00098,16.00293 C25.8877,20.09521,21.14893,22.44238,16,22.44238s-9.8877-2.34717-13.00098-6.44531C6.1123,11.90479,10.85107,9.55762,16,9.55762 s9.8877,2.34717,13.00098,6.43945C29.00098,15.99756,29.00098,16.00244,29.00098,16.00293z" style="fill: inherit;"/><path d="M16,10.146c-3.22803,0-5.854,2.62598-5.854,5.854s2.62598,5.854,5.854,5.854s5.854-2.62598,5.854-5.854 S19.22803,10.146,16,10.146z M16,19.854c-2.125,0-3.854-1.729-3.854-3.854s1.729-3.854,3.854-3.854s3.854,1.729,3.854,3.854 S18.125,19.854,16,19.854z" style="fill: inherit;"/></g></svg>