<svg xmlns="http://www.w3.org/2000/svg" xmlns:xlink="http://www.w3.org/1999/xlink" preserveAspectRatio="xMidYMid meet" version="1.0" viewBox="-6.9 -3.3 139.7 129.2" zoomAndPan="magnify" style="fill: rgb(118, 75, 54);" original_string_length="10700"><g id="__id244_sgjrh3pmj6"><path d="M125.24,65.366c-0.882-1.063-2.444-1.563-3.977-1.269c-1.692,0.322-3.038,1.536-3.615,3.303 c-0.021,0.082-0.54,2.06-1.142,6.117c-0.046,0.239-0.114,0.446-0.193,0.64c-0.199-0.1-0.414-0.323-0.527-0.812l0.628-9.179 c16.437-24.602,9.62-48.063-5.664-58.558C98.194-3.013,78.411-3.285,64.309,16.205c-0.469-0.171-0.954-0.272-1.436-0.272 c-0.432,0-0.843,0.083-1.234,0.214C47.532-3.298,27.76-3.002,15.219,5.624C-0.048,16.123-6.852,39.58,9.575,64.167l0.628,9.179 c-0.109,0.478-0.313,0.712-0.532,0.815c-0.073-0.184-0.138-0.379-0.181-0.602c-0.609-4.1-1.127-6.077-1.166-6.215 c-0.561-1.711-1.906-2.925-3.598-3.247c-1.533-0.291-3.095,0.207-3.977,1.269c-0.827,0.997-0.977,2.323-0.417,3.752 c1.566,3.787,1.941,7.561,2.273,10.89c0.539,5.408,1.023,10.232,6.721,11.824l0.116,33.104c0.002,0.551,0.449,0.996,1,0.996 c0.001,0,0.002,0,0.003,0c0.552-0.002,0.999-0.451,0.997-1.004l-0.115-32.716c0.822,0.106,1.703,0.176,2.701,0.176 c0.36,0,0.733-0.008,1.118-0.022c0.552-0.021,0.982-0.485,0.961-1.037s-0.471-0.99-1.038-0.961 c-9.383,0.335-9.797-3.752-10.475-10.559c-0.345-3.467-0.736-7.396-2.408-11.438c-0.284-0.724-0.25-1.306,0.101-1.729 c0.416-0.502,1.245-0.737,2.064-0.58c0.576,0.109,1.612,0.503,2.055,1.85c0.005,0.019,0.515,1.97,1.111,5.982 c0.423,2.205,1.804,3.121,3.023,3.928c1.516,1.004,2.713,1.798,2.404,5.21c-0.05,0.55,0.356,1.036,0.906,1.086 c0.547,0.058,1.036-0.356,1.086-0.906c0.417-4.601-1.64-5.963-3.292-7.057c-0.242-0.16-0.47-0.313-0.684-0.469 c0.562-0.408,1.041-1.066,1.23-2.093c0.015-0.082,0.02-0.166,0.014-0.249l-1.612-23.553c-0.055-0.663,0.092-1.15,0.415-1.373 c0.279-0.193,0.706-0.191,1.112,0.003c0.743,0.354,1.237,1.218,1.323,2.328l1.263,13.152c-0.403,0.147-0.687,0.53-0.661,0.981 c0.032,0.552,0.513,0.969,1.055,0.941c0.106-0.008,10.776-0.549,15.769,4.533c0.196,0.199,0.455,0.299,0.713,0.299 c0.253,0,0.506-0.096,0.701-0.287c0.394-0.387,0.4-1.02,0.013-1.414c-0.381-0.388-0.79-0.745-1.218-1.077 c0.084-0.129,0.16-0.266,0.216-0.419c0.023-0.063,0.04-0.129,0.05-0.195l1.569-10.227c0.148-0.695,0.536-1.063,1.036-0.974 c0.497,0.085,0.973,0.627,0.836,1.691l-1.311,24.94c0,0.039-0.104,3.872-2.713,6.063c-1.608,1.35-3.878,1.809-6.744,1.359 c-0.54-0.082-1.057,0.288-1.142,0.834c-0.085,0.546,0.288,1.057,0.833,1.143c0.817,0.127,1.597,0.191,2.34,0.191 c1.042,0,2.006-0.133,2.897-0.383l0.437,33.044c0.007,0.547,0.454,0.986,1,0.986c0.005,0,0.009,0,0.014,0 c0.552-0.008,0.994-0.461,0.987-1.014l-0.448-33.853c0.39-0.228,0.763-0.483,1.111-0.776c0.648-0.544,1.17-1.16,1.597-1.798 c4.607,3.422,9.731,6.787,15.258,10.019l0.09,26.425c0.002,0.551,0.449,0.996,1,0.996c0.001,0,0.002,0,0.003,0 c0.552-0.002,0.999-0.451,0.997-1.004l-0.15-43.898c1.148,0.166,2.419,0.258,3.846,0.258c0.459,0,0.935-0.009,1.425-0.027 c0.552-0.021,0.983-0.484,0.962-1.036c-0.021-0.551-0.485-1.024-1.037-0.962c-12.543,0.456-13.071-4.896-13.971-13.781 c-0.448-4.422-0.956-9.435-3.122-14.582c-0.278-0.695-0.476-1.688,0.159-2.463c0.605-0.739,1.814-1.09,2.999-0.869 c1.396,0.258,2.467,1.218,2.923,2.58c0.006,0.024,0.671,2.513,1.453,7.681c0.184,0.942,0.52,1.685,0.938,2.307 c0.007,0.011,0.012,0.022,0.02,0.032c0.784,1.152,1.862,1.865,2.86,2.514c1.975,1.285,3.68,2.395,3.262,6.927 c-0.051,0.55,0.354,1.037,0.904,1.088c0.545,0.05,1.037-0.354,1.087-0.904c0.529-5.733-2.072-7.427-4.163-8.787 c-0.441-0.287-0.848-0.558-1.219-0.845c0.814-0.453,1.54-1.294,1.806-2.713c0.012-0.064,0.018-0.13,0.017-0.195l-0.313-29.989 c0-0.729,0.193-1.313,0.559-1.688c0.301-0.309,0.729-0.479,1.204-0.479c1.236,0,2.55,1.109,2.55,3.166V45.26 c-0.02,0.001-0.045,0.002-0.056,0.003c-0.551,0.03-0.973,0.502-0.942,1.054c0.03,0.551,0.515,0.968,1.053,0.942 c0.144-0.005,14.202-0.701,20.8,5.896c0.195,0.195,0.451,0.293,0.707,0.293s0.512-0.098,0.707-0.293 c0.391-0.391,0.391-1.023,0-1.414c-0.236-0.236-0.48-0.463-0.731-0.682l1.593-15.305c0.142-1.401,1.028-2.196,1.702-2.196 c0.736,0.037,1.479,1.101,1.481,3.329l-1.981,32.269c-0.001,0.051-0.156,5.054-3.589,7.932c-2.172,1.821-5.232,2.444-9.092,1.852 c-0.546-0.084-1.057,0.29-1.14,0.837c-0.084,0.546,0.291,1.056,0.836,1.14c1.048,0.161,2.048,0.241,2.999,0.241 c1.481,0,2.839-0.2,4.078-0.588l0.575,44.376c0.007,0.548,0.454,0.987,1,0.987c0.004,0,0.009,0,0.014,0 c0.552-0.007,0.994-0.461,0.987-1.013l-0.339-26.154c5.672-3.296,10.94-6.747,15.688-10.274c0.426,0.638,0.948,1.254,1.597,1.798 c0.348,0.293,0.721,0.548,1.111,0.776l-0.448,33.853c-0.007,0.553,0.435,1.006,0.987,1.014c0.004,0,0.009,0,0.014,0 c0.546,0,0.992-0.439,1-0.986l0.437-33.044c0.891,0.25,1.855,0.383,2.897,0.383c0.743,0,1.523-0.064,2.34-0.191 c0.546-0.086,0.919-0.597,0.833-1.143c-0.084-0.546-0.598-0.915-1.142-0.834c-2.859,0.447-5.126-0.008-6.732-1.351 c-2.602-2.174-2.724-6.035-2.726-6.105l-1.316-24.984c-0.129-0.987,0.347-1.529,0.843-1.614c0.502-0.088,0.888,0.278,1.026,0.916 l1.579,10.284c0.01,0.066,0.027,0.132,0.05,0.195c0.056,0.153,0.132,0.29,0.217,0.419c-0.428,0.332-0.837,0.689-1.218,1.077 c-0.387,0.395-0.381,1.027,0.013,1.414c0.194,0.191,0.448,0.287,0.701,0.287c0.259,0,0.518-0.1,0.713-0.299 c4.985-5.072,15.662-4.537,15.77-4.533c0.544,0.027,1.024-0.391,1.054-0.942c0.026-0.45-0.258-0.833-0.66-0.98l1.264-13.17 c0.084-1.092,0.578-1.955,1.321-2.31c0.406-0.194,0.833-0.195,1.112-0.003c0.322,0.223,0.469,0.71,0.414,1.387l-1.611,23.539 c-0.006,0.083-0.001,0.167,0.014,0.249c0.189,1.026,0.667,1.684,1.23,2.093c-0.214,0.156-0.442,0.309-0.684,0.469 c-1.652,1.094-3.708,2.456-3.292,7.057c0.05,0.55,0.535,0.968,1.086,0.906c0.55-0.05,0.956-0.536,0.906-1.086 c-0.309-3.412,0.888-4.206,2.404-5.21c0.781-0.517,1.626-1.084,2.248-2.012c0.008-0.011,0.013-0.023,0.02-0.034 c0.338-0.514,0.611-1.133,0.763-1.924c0.584-3.935,1.089-5.886,1.088-5.886c0,0,0,0,0,0c0.459-1.401,1.495-1.795,2.071-1.904 c0.818-0.157,1.647,0.078,2.064,0.58c0.351,0.423,0.385,1.005,0.107,1.712c-1.678,4.06-2.069,7.988-2.415,11.455 c-0.678,6.806-1.091,10.897-10.475,10.559c-0.57-0.034-1.017,0.408-1.038,0.961c-0.021,0.552,0.41,1.017,0.961,1.037 c0.385,0.015,0.758,0.022,1.118,0.022c0.998,0,1.878-0.07,2.701-0.176l-0.115,32.716c-0.002,0.553,0.444,1.002,0.997,1.004 c0.001,0,0.002,0,0.003,0c0.551,0,0.998-0.445,1-0.996l0.116-33.105c5.697-1.593,6.183-6.417,6.721-11.824 c0.332-3.329,0.707-7.103,2.279-10.906C126.217,67.689,126.067,66.363,125.24,65.366z M64.039,18.274 c0.005,0.004,0.007,0.009,0.012,0.013c0.012,0.009,0.027,0.009,0.04,0.017c0.729,0.466,1.279,1.366,1.279,2.686 c-0.056,2.587-0.215,6.587-0.383,10.821c-0.204,5.129-0.414,10.409-0.474,13.949c-1.151-0.177-2.247-0.298-3.249-0.378 c-0.157-5.403-0.257-19.091-0.266-25.157c0-0.765,0.207-1.379,0.597-1.778c0.074-0.076,0.157-0.141,0.243-0.201 c0.018-0.011,0.04-0.013,0.057-0.025c0.009-0.006,0.013-0.017,0.022-0.023c0.277-0.169,0.604-0.264,0.956-0.264 C63.277,17.932,63.677,18.055,64.039,18.274z M18.551,48.392c-0.058-1.908-0.103-3.398-0.104-4.012c0-0.542,0.137-0.971,0.397-1.241 c0.261-0.271,0.583-0.329,0.808-0.329c0.836,0,1.682,0.751,1.682,2.163c-0.056,2.63-0.192,14.73-0.031,19.201 c-0.929-0.136-1.807-0.226-2.597-0.282C18.936,61.149,18.705,53.486,18.551,48.392z M25.265,65.033 c0.008-0.034,0.021-0.065,0.027-0.099c0.006-0.037,0.011-0.073,0.013-0.11l0.929-14.917c0.106-0.881,0.511-1.378,1.091-1.352 c0.54,0.032,1.086,0.549,1.088,1.422c-0.006,0.113-0.568,10.739-0.929,15.844C26.755,65.515,26.011,65.254,25.265,65.033z M53.445,23.095c-1.019,0-1.955,0.385-2.636,1.083c-0.514,0.526-1.126,1.489-1.126,3.094l0.312,29.896 c-0.218,1.019-0.754,1.323-1.183,1.398c-0.153-0.316-0.278-0.667-0.359-1.079c-0.792-5.237-1.464-7.757-1.509-7.917 c-0.71-2.129-2.341-3.576-4.474-3.97c-1.913-0.356-3.839,0.263-4.909,1.568c-0.978,1.193-1.145,2.781-0.463,4.489 c2.057,4.888,2.548,9.742,2.982,14.025c0.696,6.868,1.322,12.987,8.763,14.948l0.053,15.553c-5.173-3.067-9.974-6.249-14.303-9.479 c0.83-2.024,0.88-3.838,0.882-3.938l1.303-24.83c0.287-2.194-1.035-3.596-2.488-3.846c-1.299-0.226-2.892,0.474-3.341,2.585 l-1.509,9.826c0.359-4.877,0.964-16.305,0.971-16.474c0-2.139-1.528-3.385-2.966-3.472c-1.406-0.066-2.924,0.845-3.202,3.166 l-0.924,14.809c-0.187-3.997-0.043-16.806,0.015-19.537c0-2.718-1.897-4.185-3.682-4.185c-0.867,0-1.667,0.335-2.25,0.943 c-0.436,0.453-0.955,1.277-0.955,2.628c0.001,0.624,0.046,2.135,0.105,4.071c0.145,4.777,0.386,12.764,0.16,15.352 c-0.001,0-0.002,0-0.003,0l-1.27-13.228c-0.14-1.813-1.058-3.294-2.455-3.96c-1.068-0.511-2.231-0.451-3.109,0.156 c-0.542,0.374-1.428,1.286-1.272,3.169l0.684,9.993C-3.877,37.589,2.537,16.773,16.352,7.271c11.745-8.08,30.301-8.309,43.624,9.986 c-0.483,0.576-0.978,1.518-0.978,2.968c0.009,6.009,0.107,19.485,0.262,25.036c-0.463-0.018-0.883-0.027-1.264-0.031V28.261 C57.995,24.906,55.651,23.095,53.445,23.095z M72.856,48.119c-1.035-0.469-2.103-0.862-3.177-1.192L70.3,27.335 c0.157-1.277,0.838-2.032,1.747-1.979c0.844,0.052,1.698,0.813,1.699,2.132C73.74,27.65,73.184,42.316,72.856,48.119z M97.579,50.029c0-0.926,0.546-1.442,1.086-1.475c0.57-0.02,0.985,0.471,1.086,1.294l0.934,14.975 c0.002,0.037,0.007,0.073,0.013,0.11c0.006,0.035,0.019,0.066,0.027,0.099c-0.746,0.221-1.49,0.483-2.219,0.788 C98.145,60.716,97.583,50.092,97.579,50.029z M104.656,44.995c0-1.434,0.846-2.185,1.682-2.185c0.225,0,0.547,0.058,0.808,0.329 c0.26,0.271,0.397,0.699,0.397,1.24c-0.001,0.614-0.046,2.104-0.104,4.013c-0.154,5.094-0.385,12.757-0.156,15.5 c-0.79,0.056-1.668,0.146-2.597,0.282C104.848,59.704,104.712,47.604,104.656,44.995z M113.007,46.617 c-1.397,0.666-2.314,2.146-2.453,3.941l-1.271,13.245c-0.232-2.546,0.011-10.562,0.156-15.351c0.059-1.937,0.104-3.447,0.105-4.072 c0-1.35-0.52-2.174-0.955-2.627c-0.584-0.608-1.383-0.943-2.25-0.943c-1.785,0-3.682,1.467-3.682,4.206 c0.058,2.708,0.202,15.496,0.015,19.515l-0.929-14.865c-0.272-2.263-1.789-3.173-3.197-3.108c-1.438,0.087-2.966,1.333-2.965,3.524 c0.006,0.117,0.611,11.554,0.971,16.425l-1.52-9.888C94.591,54.564,93,53.868,91.7,54.091c-1.453,0.25-2.774,1.651-2.495,3.769 l1.308,24.874c0.002,0.12,0.053,1.943,0.884,3.971c-4.479,3.342-9.437,6.618-14.771,9.76L76.41,79.728 c0.578-0.32,1.122-0.693,1.63-1.12c4.127-3.473,4.285-9.17,4.288-9.369l1.981-32.29c0-3.847-1.745-5.306-3.378-5.388 c-1.943-0.11-3.553,1.62-3.792,3.989l-1.468,14.106c-0.285-0.187-0.575-0.366-0.87-0.537c0.319-5.019,0.919-20.856,0.946-21.594 c0-2.564-1.842-4.061-3.576-4.166c-1.666-0.118-3.52,1.012-3.861,3.821l-0.613,19.204c-0.398-0.096-0.795-0.186-1.188-0.267 c0.052-3.509,0.268-8.949,0.478-14.228c0.169-4.243,0.329-8.252,0.385-10.879c0-1.615-0.559-2.86-1.382-3.716 C79.304-1.024,97.861-0.816,109.619,7.257c13.832,9.499,20.258,30.317,7.086,52.677l0.683-9.979 c0.157-1.896-0.729-2.809-1.271-3.183C115.237,46.166,114.075,46.106,113.007,46.617z" style="fill: inherit;"/></g></svg>